<svg width="478" height="323" viewBox="0 0 478 323" fill="none" xmlns="http://www.w3.org/2000/svg">
<path d="M477 161.5C477 205.665 450.509 245.765 407.439 274.869C364.374 303.969 304.825 322 239 322C173.175 322 113.626 303.969 70.5614 274.869C27.4914 245.765 1 205.665 1 161.5C1 117.335 27.4914 77.2346 70.5614 48.1308C113.626 19.031 173.175 1 239 1C304.825 1 364.374 19.031 407.439 48.1308C450.509 77.2346 477 117.335 477 161.5Z" fill="#B1D6FF" fill-opacity="0.5" stroke="#3077C6" stroke-width="2"/>
<path d="M344 203.5C344 250.54 297.19 289 239 289C180.81 289 134 250.54 134 203.5C134 156.46 180.81 118 239 118C297.19 118 344 156.46 344 203.5Z" fill="#B1D6FF" fill-opacity="0.5" stroke="#3077C6" stroke-width="2"/>
<path d="M207.772 211.364C207.34 211.652 206.816 211.876 206.2 212.036C205.584 212.196 204.98 212.276 204.388 212.276C203.028 212.276 201.98 211.92 201.244 211.208C200.508 210.496 200.14 209.58 200.14 208.46V200.924H197.236V199.364H200.14V196.496L202.156 196.256V199.364H206.524L206.284 200.924H202.156V208.436C202.156 209.14 202.34 209.676 202.708 210.044C203.084 210.412 203.704 210.596 204.568 210.596C205.04 210.596 205.476 210.54 205.876 210.428C206.276 210.316 206.648 210.172 206.992 209.996L207.772 211.364ZM222.643 199.364L218.203 212.084C217.907 212.94 217.531 213.724 217.075 214.436C216.627 215.148 216.039 215.736 215.311 216.2C214.591 216.672 213.675 216.964 212.563 217.076L212.251 215.468C213.123 215.324 213.811 215.104 214.315 214.808C214.819 214.512 215.215 214.132 215.503 213.668C215.799 213.204 216.059 212.648 216.283 212H215.611L211.195 199.364H213.355L216.979 210.464L220.555 199.364H222.643ZM232.173 199.1C233.293 199.1 234.185 199.372 234.849 199.916C235.521 200.46 236.005 201.228 236.301 202.22C236.597 203.204 236.745 204.356 236.745 205.676C236.745 206.948 236.565 208.084 236.205 209.084C235.853 210.076 235.317 210.856 234.597 211.424C233.877 211.992 232.969 212.276 231.873 212.276C230.489 212.276 229.377 211.788 228.537 210.812V216.836L226.521 217.088V199.364H228.237L228.405 201.128C228.869 200.48 229.421 199.98 230.061 199.628C230.709 199.276 231.413 199.1 232.173 199.1ZM231.693 200.72C230.997 200.72 230.381 200.932 229.845 201.356C229.317 201.772 228.881 202.236 228.537 202.748V209.012C228.865 209.5 229.277 209.888 229.773 210.176C230.277 210.456 230.829 210.596 231.429 210.596C232.477 210.596 233.265 210.196 233.793 209.396C234.321 208.596 234.585 207.352 234.585 205.664C234.585 204.56 234.481 203.644 234.273 202.916C234.065 202.18 233.749 201.632 233.325 201.272C232.901 200.904 232.357 200.72 231.693 200.72ZM242.496 206.396C242.536 207.372 242.724 208.172 243.06 208.796C243.396 209.412 243.84 209.868 244.392 210.164C244.944 210.452 245.544 210.596 246.192 210.596C246.84 210.596 247.424 210.5 247.944 210.308C248.472 210.116 249.012 209.832 249.564 209.456L250.512 210.788C249.92 211.252 249.244 211.616 248.484 211.88C247.732 212.144 246.96 212.276 246.168 212.276C244.944 212.276 243.9 212 243.036 211.448C242.172 210.896 241.512 210.128 241.056 209.144C240.608 208.152 240.384 207.004 240.384 205.7C240.384 204.42 240.612 203.284 241.068 202.292C241.524 201.3 242.164 200.52 242.988 199.952C243.812 199.384 244.784 199.1 245.904 199.1C246.968 199.1 247.884 199.352 248.652 199.856C249.42 200.352 250.008 201.064 250.416 201.992C250.832 202.912 251.04 204.012 251.04 205.292C251.04 205.508 251.036 205.712 251.028 205.904C251.02 206.088 251.008 206.252 250.992 206.396H242.496ZM245.928 200.756C244.992 200.756 244.208 201.088 243.576 201.752C242.952 202.416 242.596 203.444 242.508 204.836H249.096C249.072 203.484 248.776 202.468 248.208 201.788C247.64 201.1 246.88 200.756 245.928 200.756ZM277.685 207.788H271.145L269.825 212H267.773L273.149 195.476H275.813L281.189 212H279.005L277.685 207.788ZM271.685 206.06H277.145L274.433 197.228L271.685 206.06Z" fill="black"/>
<path d="M207.772 73.364C207.34 73.652 206.816 73.876 206.2 74.036C205.584 74.196 204.98 74.276 204.388 74.276C203.028 74.276 201.98 73.92 201.244 73.208C200.508 72.496 200.14 71.58 200.14 70.46V62.924H197.236V61.364H200.14V58.496L202.156 58.256V61.364H206.524L206.284 62.924H202.156V70.436C202.156 71.14 202.34 71.676 202.708 72.044C203.084 72.412 203.704 72.596 204.568 72.596C205.04 72.596 205.476 72.54 205.876 72.428C206.276 72.316 206.648 72.172 206.992 71.996L207.772 73.364ZM222.643 61.364L218.203 74.084C217.907 74.94 217.531 75.724 217.075 76.436C216.627 77.148 216.039 77.736 215.311 78.2C214.591 78.672 213.675 78.964 212.563 79.076L212.251 77.468C213.123 77.324 213.811 77.104 214.315 76.808C214.819 76.512 215.215 76.132 215.503 75.668C215.799 75.204 216.059 74.648 216.283 74H215.611L211.195 61.364H213.355L216.979 72.464L220.555 61.364H222.643ZM232.173 61.1C233.293 61.1 234.185 61.372 234.849 61.916C235.521 62.46 236.005 63.228 236.301 64.22C236.597 65.204 236.745 66.356 236.745 67.676C236.745 68.948 236.565 70.084 236.205 71.084C235.853 72.076 235.317 72.856 234.597 73.424C233.877 73.992 232.969 74.276 231.873 74.276C230.489 74.276 229.377 73.788 228.537 72.812V78.836L226.521 79.088V61.364H228.237L228.405 63.128C228.869 62.48 229.421 61.98 230.061 61.628C230.709 61.276 231.413 61.1 232.173 61.1ZM231.693 62.72C230.997 62.72 230.381 62.932 229.845 63.356C229.317 63.772 228.881 64.236 228.537 64.748V71.012C228.865 71.5 229.277 71.888 229.773 72.176C230.277 72.456 230.829 72.596 231.429 72.596C232.477 72.596 233.265 72.196 233.793 71.396C234.321 70.596 234.585 69.352 234.585 67.664C234.585 66.56 234.481 65.644 234.273 64.916C234.065 64.18 233.749 63.632 233.325 63.272C232.901 62.904 232.357 62.72 231.693 62.72ZM242.496 68.396C242.536 69.372 242.724 70.172 243.06 70.796C243.396 71.412 243.84 71.868 244.392 72.164C244.944 72.452 245.544 72.596 246.192 72.596C246.84 72.596 247.424 72.5 247.944 72.308C248.472 72.116 249.012 71.832 249.564 71.456L250.512 72.788C249.92 73.252 249.244 73.616 248.484 73.88C247.732 74.144 246.96 74.276 246.168 74.276C244.944 74.276 243.9 74 243.036 73.448C242.172 72.896 241.512 72.128 241.056 71.144C240.608 70.152 240.384 69.004 240.384 67.7C240.384 66.42 240.612 65.284 241.068 64.292C241.524 63.3 242.164 62.52 242.988 61.952C243.812 61.384 244.784 61.1 245.904 61.1C246.968 61.1 247.884 61.352 248.652 61.856C249.42 62.352 250.008 63.064 250.416 63.992C250.832 64.912 251.04 66.012 251.04 67.292C251.04 67.508 251.036 67.712 251.028 67.904C251.02 68.088 251.008 68.252 250.992 68.396H242.496ZM245.928 62.756C244.992 62.756 244.208 63.088 243.576 63.752C242.952 64.416 242.596 65.444 242.508 66.836H249.096C249.072 65.484 248.776 64.468 248.208 63.788C247.64 63.1 246.88 62.756 245.928 62.756ZM278.033 69.356C278.033 68.524 277.869 67.884 277.541 67.436C277.221 66.98 276.793 66.664 276.257 66.488C275.721 66.312 275.133 66.224 274.493 66.224H271.673V72.284H274.397C274.805 72.284 275.221 72.244 275.645 72.164C276.069 72.084 276.461 71.94 276.821 71.732C277.189 71.524 277.481 71.232 277.697 70.856C277.921 70.472 278.033 69.972 278.033 69.356ZM277.373 61.748C277.373 60.812 277.081 60.148 276.497 59.756C275.921 59.356 275.133 59.156 274.133 59.156H271.673V64.508H274.337C275.313 64.508 276.061 64.292 276.581 63.86C277.109 63.42 277.373 62.716 277.373 61.748ZM280.229 69.284C280.229 70.18 280.049 70.932 279.689 71.54C279.337 72.148 278.861 72.632 278.261 72.992C277.669 73.352 277.005 73.612 276.269 73.772C275.541 73.924 274.797 74 274.037 74H269.597V57.476H273.665C274.393 57.476 275.101 57.544 275.789 57.68C276.485 57.808 277.109 58.032 277.661 58.352C278.221 58.664 278.669 59.088 279.005 59.624C279.341 60.16 279.509 60.832 279.509 61.64C279.509 62.352 279.361 62.956 279.065 63.452C278.777 63.94 278.397 64.332 277.925 64.628C277.461 64.924 276.965 65.132 276.437 65.252C277.053 65.348 277.649 65.536 278.225 65.816C278.809 66.088 279.289 66.504 279.665 67.064C280.041 67.616 280.229 68.356 280.229 69.284Z" fill="black"/>
</svg>
